HIERARCHY
ROOT Pelvis
{
	OFFSET 0.000000 0.000000 0.000000
	CHANNELS 6 Xposition Yposition Zposition Xrotation Yrotation Zrotation
	JOINT LeftUpLeg_virtual
	{
		OFFSET 0.000000 0.000000 0.000000
		CHANNELS 3 Xrotation Yrotation Zrotation
		JOINT LeftUpLeg
		{
			OFFSET 18.735201 -5.666702 -4.541200
			CHANNELS 3 Xrotation Yrotation Zrotation
			JOINT LeftLeg
			{
				OFFSET -0.021200 -31.938179 0.493100
				CHANNELS 3 Xrotation Yrotation Zrotation
				JOINT LeftFoot
				{
					OFFSET 0.021200 -31.938179 -4.336299
					CHANNELS 3 Xrotation Yrotation Zrotation
					JOINT LeftToeBase
					{
						OFFSET 0.943001 -26.722000 15.023500
						CHANNELS 3 Xrotation Yrotation Zrotation
						End Site
						{
							OFFSET 0 0 0
						}
					}
				}
			}
		}
	}
	JOINT RightUpLeg_virtual
	{
		OFFSET 0.000000 0.000000 0.000000
		CHANNELS 3 Xrotation Yrotation Zrotation
		JOINT RightUpLeg
		{
			OFFSET -18.735201 -5.666702 -4.541200
			CHANNELS 3 Xrotation Yrotation Zrotation
			JOINT RightLeg
			{
				OFFSET 0.018946 -31.938133 0.493100
				CHANNELS 3 Xrotation Yrotation Zrotation
				JOINT RightFoot
				{
					OFFSET -0.018946 -31.938126 -4.336299
					CHANNELS 3 Xrotation Yrotation Zrotation
					JOINT RightToeBase
					{
						OFFSET -0.943001 -26.722004 15.023500
						CHANNELS 3 Xrotation Yrotation Zrotation
						End Site
						{
							OFFSET 0 0 0
						}
					}
				}
			}
		}
	}
	JOINT Hips_virtual
	{
		OFFSET 0.000000 0.000000 0.000000
		CHANNELS 3 Xrotation Yrotation Zrotation
		JOINT Hips
		{
			OFFSET -0.000000 -0.000000 -0.000000
			CHANNELS 3 Xrotation Yrotation Zrotation
			JOINT Spine
			{
				OFFSET 0.000000 10.199997 -0.299500
				CHANNELS 3 Xrotation Yrotation Zrotation
				JOINT Spine1
				{
					OFFSET 0.000000 11.900002 -1.516600
					CHANNELS 3 Xrotation Yrotation Zrotation
					JOINT Spine2
					{
						OFFSET 0.000000 13.600006 -2.842500
						CHANNELS 3 Xrotation Yrotation Zrotation
						JOINT Neck_virtual
						{
							OFFSET 0.000000 0.000000 0.000000
							CHANNELS 3 Xrotation Yrotation Zrotation
							JOINT Neck
							{
								OFFSET 0.000000 9.624100 -2.890100
								CHANNELS 3 Xrotation Yrotation Zrotation
								JOINT Head
								{
									OFFSET 0.000000 14.068802 -1.351900
									CHANNELS 3 Xrotation Yrotation Zrotation
									End Site
									{
										OFFSET 0 0 0
									}
								}
							}
						}
						JOINT LeftShoulder_virtual
						{
							OFFSET 0.000000 0.000000 0.000000
							CHANNELS 3 Xrotation Yrotation Zrotation
							JOINT LeftShoulder
							{
								OFFSET 15.263000 10.923401 -0.547700
								CHANNELS 3 Xrotation Yrotation Zrotation
								JOINT LeftArm
								{
									OFFSET 25.438599 -2.830597 -13.032500
									CHANNELS 3 Xrotation Yrotation Zrotation
									JOINT LeftForeArm
									{
										OFFSET 29.960503 0.000000 0.000000
										CHANNELS 3 Xrotation Yrotation Zrotation
										JOINT LeftHand
										{
											OFFSET 27.849251 0.000000 0.000000
											CHANNELS 3 Xrotation Yrotation Zrotation
											End Site
											{
												OFFSET 0 0 0
											}
										}
									}
								}
							}
						}
						JOINT RightShoulder_virtual
						{
							OFFSET 0.000000 0.000000 0.000000
							CHANNELS 3 Xrotation Yrotation Zrotation
							JOINT RightShoulder
							{
								OFFSET -15.263000 10.923401 -0.547700
								CHANNELS 3 Xrotation Yrotation Zrotation
								JOINT RightArm
								{
									OFFSET -25.438599 -2.830597 -13.032500
									CHANNELS 3 Xrotation Yrotation Zrotation
									JOINT RightForeArm
									{
										OFFSET -29.960503 0.000000 0.000000
										CHANNELS 3 Xrotation Yrotation Zrotation
										JOINT RightHand
										{
											OFFSET -27.849251 0.000000 0.000000
											CHANNELS 3 Xrotation Yrotation Zrotation
											End Site
											{
												OFFSET 0 0 0
											}
										}
									}
								}
							}
						}
					}
				}
			}
		}
	}
}
MOTION
Frames: 10
Frame Time: 0.03333333
8.042480 88.574425 -10.637531 0.000000 0.000000 0.000000 12.686755 9.108344 -1.493919 -17.267673 13.241988 12.261434 38.596644 -1.329313 1.796578 15.111624 -2.801048 -6.377810 0.000000 0.000000 0.000000 12.686755 9.108344 -1.493919 -50.762956 -5.287802 -7.771741 50.022345 -1.603439 3.439647 -5.902620 2.001406 -0.832111 0.000000 0.000000 0.000000 12.686755 9.108344 -1.493919 0.000000 0.000000 0.000000 4.513430 -1.070907 0.877206 1.564963 -2.658697 2.901393 0.000000 0.000000 0.000000 1.574393 -2.667813 2.901703 -1.283252 0.244964 1.079713 0.000000 0.000000 0.000000 1.574393 -2.667813 2.901703 0.124290 -1.541123 2.568618 -46.523868 -11.866259 -46.983915 -180.000005 -67.351847 179.999991 0.000000 0.000000 0.000000 1.574393 -2.667813 2.901703 -1.082566 -10.880360 5.337835 -47.164915 8.617415 48.689560 -179.999909 59.788819 179.999909 0.000000 0.000000 0.000000 
7.993722 88.786301 -11.592445 0.000000 0.000000 0.000000 14.005258 9.168698 -1.850238 -24.662853 12.544192 12.881586 44.043946 -3.714849 0.164303 21.862179 -2.774296 -1.506746 0.000000 0.000000 0.000000 14.005258 9.168698 -1.850238 -51.435313 -5.230723 -6.800571 51.877694 -2.308857 3.194438 -3.671114 2.129353 -1.618773 0.000000 0.000000 0.000000 14.005258 9.168698 -1.850238 0.000000 0.000000 0.000000 3.839191 -0.780737 1.350522 3.030184 -2.333151 2.316411 0.000000 0.000000 0.000000 3.025681 -2.337051 2.305679 -1.346412 0.311655 0.782699 0.000000 0.000000 0.000000 3.025681 -2.337051 2.305679 0.226643 -3.126609 5.972566 -55.645507 -11.976973 -43.754496 -179.999909 -69.485242 -179.999923 0.000000 0.000000 0.000000 3.025681 -2.337051 2.305679 -1.787735 -12.486582 1.915336 -57.494115 10.708990 49.479915 -180.000005 64.133489 179.999991 0.000000 0.000000 0.000000 
7.928036 88.733437 -12.438526 0.000000 0.000000 0.000000 14.995870 8.990798 -2.055413 -34.106652 10.744610 14.523212 56.659390 -4.604492 -0.568358 21.810932 -2.405867 1.239142 0.000000 0.000000 0.000000 14.995870 8.990798 -2.055413 -51.538637 -5.129729 -5.791635 55.088133 -3.304466 2.976325 -3.799341 2.273739 -2.473249 0.000000 0.000000 0.000000 14.995870 8.990798 -2.055413 0.000000 -0.000001 0.000000 3.411434 -0.559392 1.700235 4.511545 -2.087241 1.761739 0.000000 0.000000 0.000000 4.497385 -2.087710 1.743153 -1.425449 0.389529 0.484174 0.000000 0.000000 0.000000 4.497385 -2.087710 1.743153 0.283896 -4.204906 10.156136 -64.274799 -8.933954 -40.664194 -179.999704 -71.898143 -179.999718 0.000000 0.000000 0.000000 4.497385 -2.087710 1.743153 -2.697561 -14.467632 -1.739101 -67.851748 8.072160 51.708859 180.000005 69.291525 179.999978 0.000000 0.000000 0.000000 
7.775440 88.479980 -13.152084 0.000000 0.000000 0.000000 15.060174 8.611460 -1.901597 -42.211734 9.179553 15.567842 69.345941 -3.041774 -0.503778 20.380120 -1.865891 4.923716 0.000000 0.000000 0.000000 15.060174 8.611460 -1.901597 -49.892418 -4.854865 -4.872620 57.894657 -4.545160 2.583947 -6.218663 2.388769 -2.736851 0.000000 0.000000 0.000000 15.060174 8.611460 -1.901597 0.000000 0.000000 0.000000 4.252091 -0.474013 1.652917 5.525776 -2.007907 1.460071 0.000000 0.000000 0.000000 5.509995 -2.001090 1.443115 -1.527417 0.475988 0.202428 0.000000 0.000000 0.000000 5.509995 -2.001090 1.443115 0.256384 -4.260463 17.532845 -70.525064 -4.093753 -37.545079 179.999882 -75.168643 179.999882 0.000000 0.000000 0.000000 5.509995 -2.001090 1.443115 -4.311115 -16.380942 -8.167936 -75.846655 5.206703 53.753500 -179.999021 75.375591 179.999062 0.000000 0.000000 0.000000 
7.593269 88.511223 -13.853294 0.000000 0.000000 0.000000 14.106692 8.412942 -1.300747 -48.136110 8.149996 15.909413 79.569832 0.113661 0.142255 19.310359 -1.359816 8.507271 0.000000 0.000000 0.000000 14.106692 8.412942 -1.300747 -46.563524 -4.762702 -4.417105 58.634599 -5.371058 2.156358 -10.156560 2.523884 -2.892993 0.000000 0.000000 0.000000 14.106692 8.412942 -1.300747 0.000000 0.000000 0.000000 7.120558 -0.580458 1.193474 5.499180 -2.144530 1.294730 0.000000 0.000000 0.000000 5.487192 -2.118178 1.288723 -1.645946 0.564447 -0.042465 0.000000 0.000000 0.000000 5.487192 -2.118178 1.288723 -0.047825 -3.401641 23.495963 -73.230133 -0.620999 -33.371211 -179.996563 -79.013855 -179.996590 0.000000 0.000000 0.000000 5.487192 -2.118178 1.288723 -6.651283 -17.950362 -17.593620 -79.412902 -0.555349 55.127116 179.999923 80.335920 -179.999923 0.000000 0.000000 0.000000 
7.421595 88.860367 -14.486393 0.000000 0.000000 0.000000 12.530177 8.548832 -0.309899 -52.101776 7.912825 15.549079 86.469116 2.765134 0.979659 19.194467 0.192343 11.562869 0.000000 0.000000 0.000000 12.530177 8.548832 -0.309899 -42.412514 -5.158479 -4.474792 57.508595 -5.675114 1.766602 -14.877632 2.847223 -3.669558 0.000000 0.000000 0.000000 12.530177 8.548832 -0.309899 0.000000 -0.000001 0.000000 11.198893 -0.898770 0.125477 4.641892 -2.434680 1.215398 0.000000 0.000000 0.000000 4.643786 -2.376273 1.240035 -1.778181 0.650317 -0.230739 0.000000 0.000000 0.000000 4.643786 -2.376273 1.240035 -0.549386 -2.146079 27.836929 -72.667120 1.178759 -29.946674 179.999281 -82.576010 179.999267 0.000000 0.000000 0.000000 4.643786 -2.376273 1.240035 -8.667455 -18.781803 -25.118364 -79.985784 -4.358374 54.700506 179.999923 84.691901 -179.999868 0.000000 0.000000 0.000000 
7.241431 89.208725 -14.891926 0.000000 0.000000 0.000000 11.165457 8.877806 0.944048 -54.847348 8.325116 14.974964 90.301501 5.971911 1.674143 19.470791 0.388011 14.482342 0.000000 0.000000 0.000000 11.165457 8.877806 0.944048 -38.838300 -5.906270 -4.897854 55.755340 -5.654195 1.483041 -19.498740 3.421959 -5.136181 0.000000 0.000000 0.000000 11.165457 8.877806 0.944048 0.000001 0.000000 0.000000 14.760927 -1.382116 -1.766220 3.521880 -2.688987 1.316078 0.000000 0.000000 0.000000 3.553421 -2.602713 1.385591 -1.985164 0.766005 -0.288173 0.000000 0.000000 0.000000 3.553421 -2.602713 1.385591 -0.880632 -1.466799 30.607830 -70.051089 1.890794 -27.967086 -179.999609 -84.873174 -179.999609 0.000000 0.000000 0.000000 3.553421 -2.602713 1.385591 -9.692153 -18.657445 -29.251422 -78.294137 -5.316467 52.884915 179.998011 87.936637 -179.998134 0.000000 0.000000 0.000000 
7.040553 89.165329 -15.025883 0.000000 0.000000 0.000000 10.827862 9.005501 2.108661 -57.475536 9.080567 14.646248 92.098892 7.595062 1.927399 19.152773 0.461782 16.402778 0.000000 0.000000 0.000000 10.827862 9.005501 2.108661 -37.496857 -6.469454 -5.161285 55.130213 -5.991504 0.934526 -23.197136 4.005562 -6.376552 0.000000 0.000000 0.000000 10.827862 9.005501 2.108661 0.000001 0.000001 -0.000000 16.295243 -1.798734 -3.878385 2.584060 -2.735304 1.265199 0.000000 0.000000 0.000000 2.641294 -2.664699 1.362576 -2.079267 0.753927 -0.076859 0.000000 0.000000 0.000000 2.641294 -2.664699 1.362576 -0.696177 -2.093741 30.730507 -66.963270 1.059128 -26.541967 179.999445 -85.929797 179.999472 0.000000 0.000000 0.000000 2.641294 -2.664699 1.362576 -9.480940 -17.572714 -29.617835 -74.873244 -4.107924 50.276165 -179.997095 89.507027 179.996877 0.000000 0.000000 0.000000 
6.780420 89.368057 -14.895115 0.000000 0.000000 0.000000 11.794786 8.481515 2.826981 -59.723236 10.068858 14.872272 91.012892 7.380684 1.615065 18.206400 0.389153 17.048239 0.000000 0.000000 0.000000 11.794786 8.481515 2.826981 -37.963414 -6.517979 -5.267891 54.094620 -6.556191 0.645166 -23.936719 4.237985 -6.867225 0.000000 0.000000 0.000000 11.794786 8.481515 2.826981 -0.000001 0.000001 0.000000 15.783090 -1.861890 -5.725660 1.997771 -2.501334 1.043091 0.000000 0.000000 0.000000 2.057034 -2.477865 1.130758 -2.064933 0.687504 0.195352 0.000000 0.000000 0.000000 2.057034 -2.477865 1.130758 -0.071135 -3.775393 28.755110 -63.366889 0.458225 -25.646324 179.999554 -84.727417 179.999582 0.000000 0.000000 0.000000 2.057034 -2.477865 1.130758 -8.255832 -15.776726 -26.523399 -69.865834 -1.985143 47.404474 179.998612 88.201798 -179.998680 0.000000 0.000000 0.000000 
6.445228 89.964226 -14.592941 0.000000 0.000000 0.000000 13.654290 7.030887 3.044384 -61.289719 11.086023 15.701285 87.314570 5.570583 0.763824 16.379992 0.134012 16.327699 0.000000 0.000000 0.000000 13.654290 7.030887 3.044384 -39.452908 -6.233409 -5.631501 52.111994 -6.729673 1.192261 -21.487618 3.924696 -6.245155 0.000000 0.000000 0.000000 13.654290 7.030887 3.044384 0.000000 0.000000 0.000000 14.007645 -1.497128 -7.277048 1.769763 -2.049462 0.919861 0.000000 0.000000 0.000000 1.808718 -2.056910 0.974189 -2.095577 0.639616 0.395908 0.000000 0.000000 0.000000 1.808718 -2.056910 0.974189 0.436171 -5.182430 24.206815 -59.301239 -0.248139 -25.445836 179.999964 -81.803454 179.999950 0.000000 0.000000 0.000000 1.808718 -2.056910 0.974189 -6.512472 -13.611459 -20.925599 -64.068875 0.388895 44.479483 179.999090 84.679654 -179.999103 0.000000 0.000000 0.000000 
